<?xml version="1.0" encoding="utf-8"?>
<!-- Generator: Adobe Illustrator 17.0.0, SVG Export Plug-In . SVG Version: 6.00 Build 0)  -->
<!DOCTYPE svg PUBLIC "-//W3C//DTD SVG 1.1//EN" "http://www.w3.org/Graphics/SVG/1.1/DTD/svg11.dtd">
<svg version="1.1" id="Layer_1" xmlns="http://www.w3.org/2000/svg" xmlns:xlink="http://www.w3.org/1999/xlink" x="0px" y="0px"
	 width="1280px" height="1280px" viewBox="0 0 1280 1280" enable-background="new 0 0 1280 1280" xml:space="preserve">
<g>
	<g>
		<path fill="#F2F2F2" d="M619.453,982.737L335.127,708.435c-3.645-3.19-103.888-94.775-103.888-204.129
			c0-133.506,81.561-213.245,217.801-213.245c79.739,0,154.466,62.88,190.462,98.421c35.996-35.541,110.723-98.421,190.459-98.421
			c136.24,0,217.801,79.739,217.801,213.245c0,109.353-100.243,200.939-104.344,205.04L659.55,982.737
			c-5.468,5.468-12.758,8.202-20.049,8.202S624.921,988.204,619.453,982.737z"/>
	</g>
	<g>
		<path fill="#326ADA" d="M624.884,887.668L417.592,689.675c-2.658-2.302-75.741-68.41-75.741-147.342
			c0-96.365,59.464-153.921,158.791-153.921c58.135,0,112.615,45.387,138.859,71.041c26.244-25.654,80.724-71.041,138.857-71.041
			c99.327,0,158.791,57.556,158.791,153.921c0,78.932-73.084,145.039-76.073,147.999L654.118,887.668
			c-3.986,3.947-9.302,5.92-14.617,5.92C634.186,893.588,628.871,891.615,624.884,887.668z"/>
	</g>
</g>
</svg>
